<?xml version="1.0" standalone="no"?>
<!DOCTYPE svg PUBLIC "-//W3C//DTD SVG 20010904//EN"
 "http://www.w3.org/TR/2001/REC-SVG-20010904/DTD/svg10.dtd">
<svg version="1.0" xmlns="http://www.w3.org/2000/svg"
 width="1920.000000pt" height="1080.000000pt" viewBox="0 0 1920.000000 1080.000000"
 preserveAspectRatio="xMidYMid meet">

<g transform="translate(0.000000,1080.000000) scale(0.100000,-0.100000)"
fill="#000000" stroke="none">
<path d="M4967 6029 c-115 -17 -223 -104 -269 -217 -22 -56 -23 -65 -23 -412
0 -385 1 -393 57 -482 37 -59 92 -104 166 -134 l57 -24 787 0 c772 0 788 0
843 21 73 27 154 102 191 176 l29 58 0 380 0 380 -28 57 c-55 111 -151 181
-272 199 -77 11 -1461 9 -1538 -2z m1566 -148 c40 -16 99 -73 118 -116 17 -36
19 -72 19 -360 0 -193 -4 -335 -11 -358 -13 -49 -63 -105 -114 -128 -38 -17
-87 -19 -801 -19 l-760 0 -51 25 c-32 16 -61 41 -79 67 l-29 41 -3 357 -3 357
33 49 c18 27 51 59 73 71 l40 23 772 0 c454 0 782 -4 796 -9z"/>
<path d="M5085 5731 c-93 -43 -125 -108 -125 -253 0 -123 11 -148 66 -148 60
0 74 25 74 135 0 88 2 98 25 120 29 30 68 32 95 5 17 -17 20 -33 20 -110 0
-49 5 -100 11 -114 15 -32 58 -48 90 -32 37 18 49 53 49 149 0 74 3 90 20 107
27 27 66 25 95 -5 23 -22 25 -32 25 -120 0 -108 14 -135 70 -135 57 0 70 27
70 145 0 116 -12 160 -58 209 -63 67 -172 85 -253 43 l-44 -24 -44 24 c-54 28
-129 30 -186 4z"/>
<path d="M5800 5730 c-48 -48 -7 -120 67 -120 74 0 113 61 73 113 -18 23 -29
27 -71 27 -36 0 -54 -5 -69 -20z"/>
<path d="M6120 5730 c-29 -29 -26 -74 6 -99 25 -19 40 -21 191 -21 161 0 164
0 188 25 30 30 31 54 4 89 l-20 26 -175 0 c-161 0 -176 -2 -194 -20z"/>
<path d="M5839 5441 c-35 -36 -36 -52 -5 -88 24 -27 27 -28 145 -32 l121 -3 0
-115 c0 -108 1 -115 25 -138 30 -31 65 -32 93 -2 20 21 22 34 22 140 l0 117
103 1 c123 1 144 6 170 41 17 23 18 31 8 56 -7 16 -24 34 -37 41 -17 7 -122
11 -320 11 l-296 0 -29 -29z"/>
<path d="M4980 5160 c-27 -27 -26 -71 3 -98 21 -19 35 -22 118 -22 108 0 139
15 139 70 0 56 -27 70 -140 70 -87 0 -103 -3 -120 -20z"/>
<path d="M5412 5164 c-30 -21 -30 -76 0 -104 21 -19 34 -20 259 -20 211 0 239
2 257 18 32 26 37 63 12 95 l-21 27 -243 0 c-202 0 -245 -3 -264 -16z"/>
<path d="M6409 5163 c-25 -28 -28 -47 -14 -81 25 -58 107 -52 129 11 21 59
-75 117 -115 70z"/>
<path d="M9730 5515 l0 -455 75 0 74 0 3 113 3 112 85 -112 85 -112 98 0 c76
-1 96 2 91 12 -4 6 -57 72 -116 145 l-109 133 40 47 c22 26 69 76 105 112 36
35 66 68 66 72 0 4 -42 8 -92 8 l-93 0 -75 -95 c-41 -52 -78 -94 -82 -94 -5
-1 -8 127 -8 284 l0 285 -75 0 -75 0 0 -455z"/>
<path d="M14354 5890 c-56 -23 -72 -103 -29 -145 55 -56 145 -16 145 63 0 61
-62 105 -116 82z"/>
<path d="M11410 5675 l0 -85 -108 0 -108 0 -69 -151 -68 -151 -63 149 -62 148
-86 3 -86 3 110 -221 c60 -121 110 -224 110 -230 0 -5 -38 -89 -84 -185 l-85
-175 83 0 83 0 189 399 189 399 3 -59 c3 -55 5 -59 27 -59 l25 0 0 -200 0
-200 75 0 75 0 0 200 0 200 44 0 c36 0 45 4 48 19 2 12 39 -51 95 -159 l91
-179 -84 -175 c-46 -96 -84 -177 -84 -181 0 -3 36 -5 81 -3 l81 3 189 399
c104 219 189 400 189 402 0 2 -35 4 -79 4 -51 0 -82 -4 -88 -12 -5 -7 -36 -73
-68 -145 -33 -73 -62 -133 -66 -133 -3 0 -33 64 -65 143 l-59 142 -113 3 -112
3 0 84 0 85 -75 0 -75 0 0 -85z"/>
<path d="M7915 5588 c-11 -6 -30 -20 -42 -31 l-23 -20 0 27 0 27 -72 -3 -73
-3 -3 -262 -2 -263 74 0 74 0 4 179 c3 164 5 182 24 208 30 41 86 44 110 7 15
-23 19 -56 22 -210 l4 -184 74 0 73 0 3 189 c3 169 5 191 22 210 29 31 81 28
103 -6 15 -23 19 -56 21 -210 l4 -183 75 0 75 0 -4 208 c-3 182 -6 212 -23
247 -29 57 -75 85 -143 85 -59 0 -134 -34 -146 -66 -5 -14 -10 -12 -28 11 -12
15 -36 34 -54 41 -40 17 -121 18 -149 2z"/>
<path d="M8685 5577 c-170 -81 -209 -322 -73 -457 80 -81 217 -99 324 -45 65
34 117 93 134 153 18 66 12 162 -14 217 -47 102 -119 148 -241 153 -68 2 -88
-1 -130 -21z m175 -122 c59 -30 86 -127 56 -199 -32 -78 -126 -102 -184 -48
-66 61 -67 160 -2 224 42 42 80 49 130 23z"/>
<path d="M9365 5588 c-11 -6 -30 -20 -42 -31 l-23 -20 0 27 0 27 -72 -3 -73
-3 -3 -262 -2 -263 75 0 75 0 0 145 c0 227 18 275 102 275 65 0 72 -23 77
-237 l3 -183 74 0 74 0 0 158 c-1 254 -14 308 -90 360 -25 17 -47 22 -94 22
-34 0 -70 -6 -81 -12z"/>
<path d="M10405 5581 c-97 -44 -151 -153 -143 -285 6 -84 30 -137 86 -188 50
-45 100 -62 182 -62 73 0 115 18 168 68 31 29 68 84 60 91 -2 1 -32 7 -66 13
l-64 11 -33 -34 c-26 -29 -40 -35 -72 -35 -59 0 -103 50 -103 116 l0 24 170 0
170 0 0 43 c0 103 -56 203 -134 238 -55 25 -167 25 -221 0z m174 -108 c17 -16
33 -40 37 -55 l6 -28 -102 0 c-100 0 -101 0 -95 23 25 83 98 112 154 60z"/>
<path d="M12455 5583 c-16 -8 -38 -22 -47 -31 -17 -14 -18 -13 -18 12 l0 27
-72 -3 -73 -3 -3 -402 -2 -403 75 0 75 0 0 160 c0 88 2 160 5 160 2 0 20 -11
40 -24 138 -94 324 24 342 218 11 118 -45 235 -136 283 -53 28 -140 31 -186 6z
m125 -151 c48 -48 60 -106 35 -170 -23 -57 -57 -82 -110 -82 -128 0 -174 202
-61 271 51 31 92 25 136 -19z"/>
<path d="M12975 5588 c-187 -65 -219 -382 -50 -500 87 -61 224 -58 307 5 39
31 88 100 78 111 -3 3 -33 9 -65 15 l-60 9 -34 -34 c-26 -27 -41 -34 -71 -34
-48 0 -86 30 -100 78 -18 65 -26 62 166 62 l177 0 -7 61 c-4 33 -12 73 -17 87
-36 97 -120 153 -228 151 -37 0 -79 -5 -96 -11z m143 -102 c26 -13 42 -37 56
-78 5 -16 -4 -18 -94 -18 -95 0 -100 1 -100 21 0 27 62 89 89 89 12 0 34 -6
49 -14z"/>
<path d="M13803 5579 c-145 -71 -187 -294 -83 -437 72 -99 195 -128 285 -66
43 29 45 29 45 4 0 -18 7 -20 75 -20 l75 0 -2 263 -3 262 -72 3 -73 3 0 -27
c0 -25 -1 -26 -17 -12 -59 52 -157 63 -230 27z m188 -124 c87 -45 94 -190 13
-254 -42 -33 -105 -29 -143 10 -63 63 -63 158 -1 222 42 42 80 48 131 22z"/>
<path d="M14310 5325 l0 -265 75 0 75 0 0 265 0 265 -75 0 -75 0 0 -265z"/>
</g>
</svg>
